<?xml version="1.0" encoding="UTF-8" standalone="no"?>
<!DOCTYPE svg PUBLIC "-//W3C//DTD SVG 1.1//EN" "http://www.w3.org/Graphics/SVG/1.1/DTD/svg11.dtd">
<svg width="100%" height="100%" viewBox="0 0 21 21" version="1.1" xmlns="http://www.w3.org/2000/svg" xmlns:xlink="http://www.w3.org/1999/xlink" xml:space="preserve" xmlns:serif="http://www.serif.com/" style="fill-rule:evenodd;clip-rule:evenodd;stroke-linejoin:round;stroke-miterlimit:1.41421;">
    <g transform="matrix(1,0,0,1,0.5,0)">
        <path d="M9.372,2.525C10.987,2.398 12.603,2.764 14.006,3.575C15.408,4.386 16.531,5.604 17.227,7.067C17.922,8.53 18.157,10.17 17.899,11.77C17.642,13.37 16.906,14.853 15.787,16.025C14.668,17.197 13.219,18.001 11.633,18.332C10.047,18.663 8.398,18.504 6.904,17.877C5.411,17.25 4.142,16.184 3.267,14.82C2.393,13.456 1.952,11.859 2.005,10.24C2.008,10.142 2.03,10.045 2.071,9.955C2.111,9.865 2.169,9.784 2.241,9.716C2.312,9.649 2.397,9.596 2.489,9.561C2.581,9.526 2.679,9.51 2.778,9.513C2.876,9.515 2.973,9.538 3.063,9.578C3.153,9.619 3.234,9.676 3.301,9.748C3.369,9.82 3.422,9.904 3.457,9.996C3.492,10.088 3.508,10.187 3.505,10.285C3.454,11.818 3.947,13.319 4.897,14.524C5.846,15.728 7.191,16.558 8.693,16.867C10.196,17.175 11.759,16.943 13.106,16.21C14.454,15.478 15.499,14.292 16.056,12.864C16.614,11.435 16.649,9.855 16.154,8.403C15.66,6.952 14.668,5.722 13.353,4.931C12.039,4.14 10.488,3.839 8.974,4.082C7.459,4.324 6.079,5.094 5.078,6.256L4.874,6.504L7.253,6.504L7.355,6.512C7.535,6.537 7.699,6.626 7.818,6.762C7.937,6.899 8.003,7.074 8.003,7.255C8.003,7.436 7.937,7.611 7.818,7.748C7.699,7.884 7.535,7.973 7.355,7.998L7.253,8.005L3.253,8.005L3.151,7.998C2.989,7.976 2.838,7.901 2.723,7.785C2.607,7.67 2.532,7.519 2.51,7.357L2.503,7.255L2.503,3.255L2.51,3.153C2.532,2.991 2.607,2.84 2.723,2.725C2.838,2.609 2.989,2.534 3.151,2.512L3.253,2.505L3.355,2.512C3.517,2.534 3.668,2.609 3.783,2.725C3.899,2.84 3.974,2.991 3.996,3.153L4.003,3.255L4.002,5.208C5.375,3.649 7.301,2.687 9.372,2.526L9.372,2.525ZM9.75,6.504L9.852,6.511C10.014,6.533 10.165,6.608 10.28,6.724C10.396,6.839 10.471,6.99 10.493,7.152L10.5,7.254L10.5,10.499L12.25,10.5L12.352,10.507C12.532,10.531 12.698,10.62 12.818,10.756C12.937,10.893 13.004,11.069 13.004,11.251C13.004,11.432 12.937,11.608 12.818,11.745C12.698,11.882 12.532,11.97 12.352,11.994L12.25,12L9.75,12L9.648,11.994C9.486,11.972 9.335,11.897 9.219,11.781C9.104,11.665 9.029,11.514 9.007,11.352L9,11.25L9,7.254L9.007,7.152C9.029,6.99 9.104,6.839 9.22,6.724C9.335,6.608 9.486,6.533 9.648,6.511L9.75,6.504Z" style="fill-rule:nonzero;"/>
    </g>
</svg>
