<?xml version="1.0" encoding="UTF-8" standalone="no"?>
<!DOCTYPE svg PUBLIC "-//W3C//DTD SVG 1.1//EN" "http://www.w3.org/Graphics/SVG/1.1/DTD/svg11.dtd">
<svg width="100%" height="100%" viewBox="0 0 21 21" version="1.1" xmlns="http://www.w3.org/2000/svg" xmlns:xlink="http://www.w3.org/1999/xlink" xml:space="preserve" xmlns:serif="http://www.serif.com/" style="fill-rule:evenodd;clip-rule:evenodd;stroke-linejoin:round;stroke-miterlimit:1.41421;">
    <g transform="matrix(1,0,0,1,0.5,0)">
        <path d="M15.833,3L4.167,3C3.25,3 2.5,3.75 2.5,4.667L2.5,16.333C2.5,17.25 3.25,18 4.167,18L15.833,18C16.75,18 17.5,17.25 17.5,16.333L17.5,4.667C17.5,3.75 16.75,3 15.833,3ZM4.167,16.333L4.167,4.667L9.167,4.667L9.167,16.333L4.167,16.333ZM15.833,16.333L10.833,16.333L10.833,10.5L15.833,10.5L15.833,16.333ZM15.833,8.833L10.833,8.833L10.833,4.667L15.833,4.667L15.833,8.833Z" style="fill-rule:nonzero;"/>
    </g>
</svg>
