<svg width="40" height="40" viewBox="0 0 40 40" fill="none" xmlns="http://www.w3.org/2000/svg">
<path d="M20 36.6667C10.795 36.6667 3.33337 29.205 3.33337 20C3.33337 10.795 10.795 3.33333 20 3.33333C29.205 3.33333 36.6667 10.795 36.6667 20C36.6667 29.205 29.205 36.6667 20 36.6667ZM14.1667 23.3333V26.6667H18.3334V30H21.6667V26.6667H23.3334C24.4384 26.6667 25.4983 26.2277 26.2797 25.4463C27.0611 24.6649 27.5 23.6051 27.5 22.5C27.5 21.3949 27.0611 20.3351 26.2797 19.5537C25.4983 18.7723 24.4384 18.3333 23.3334 18.3333H16.6667C16.4457 18.3333 16.2337 18.2455 16.0775 18.0893C15.9212 17.933 15.8334 17.721 15.8334 17.5C15.8334 17.279 15.9212 17.067 16.0775 16.9107C16.2337 16.7545 16.4457 16.6667 16.6667 16.6667H25.8334V13.3333H21.6667V9.99999H18.3334V13.3333H16.6667C15.5616 13.3333 14.5018 13.7723 13.7204 14.5537C12.939 15.3351 12.5 16.3949 12.5 17.5C12.5 18.6051 12.939 19.6649 13.7204 20.4463C14.5018 21.2277 15.5616 21.6667 16.6667 21.6667H23.3334C23.5544 21.6667 23.7663 21.7545 23.9226 21.9107C24.0789 22.067 24.1667 22.279 24.1667 22.5C24.1667 22.721 24.0789 22.933 23.9226 23.0893C23.7663 23.2455 23.5544 23.3333 23.3334 23.3333H14.1667Z" fill="#C8242F"/>
</svg>
