<svg width="17" height="20" viewBox="0 0 17 20" fill="none" xmlns="http://www.w3.org/2000/svg">
<path d="M8.49999 13.3333C8.33449 13.3337 8.1741 13.2659 8.04666 13.1417L3.79666 8.97501C3.65201 8.83356 3.56104 8.6303 3.54377 8.40994C3.5265 8.18959 3.58434 7.97019 3.70458 7.80001C3.82481 7.62983 3.99758 7.52281 4.18488 7.50249C4.37218 7.48217 4.55867 7.55022 4.70332 7.69167L8.49999 11.425L12.2967 7.82501C12.3691 7.75578 12.4525 7.70409 12.542 7.6729C12.6315 7.64171 12.7253 7.63163 12.8181 7.64324C12.9109 7.65486 13.0009 7.68794 13.0828 7.74058C13.1647 7.79323 13.237 7.8644 13.2954 7.95001C13.3603 8.03569 13.4094 8.13621 13.4397 8.24527C13.47 8.35434 13.4809 8.46959 13.4716 8.58381C13.4622 8.69802 13.433 8.80875 13.3856 8.90905C13.3382 9.00935 13.2738 9.09705 13.1962 9.16667L8.94624 13.1917C8.81514 13.2963 8.65802 13.3461 8.49999 13.3333Z" fill="black"/>
</svg>
