<?xml version="1.0" encoding="UTF-8" standalone="no"?>
<!DOCTYPE svg PUBLIC "-//W3C//DTD SVG 1.1//EN" "http://www.w3.org/Graphics/SVG/1.1/DTD/svg11.dtd">
<svg width="100%" height="100%" viewBox="0 0 21 21" version="1.1" xmlns="http://www.w3.org/2000/svg" xmlns:xlink="http://www.w3.org/1999/xlink" xml:space="preserve" xmlns:serif="http://www.serif.com/" style="fill-rule:evenodd;clip-rule:evenodd;stroke-linejoin:round;stroke-miterlimit:1.41421;">
    <g transform="matrix(1,0,0,1,0.499925,3.5e-05)">
        <path d="M9.961,2.167C5.388,2.167 1.667,5.905 1.667,10.5C1.667,15.095 5.405,18.833 10,18.833C14.595,18.833 18.333,15.095 18.333,10.5C18.333,5.905 14.578,2.167 9.961,2.167ZM10,17.167C6.324,17.167 3.333,14.176 3.333,10.5C3.333,6.824 6.306,3.833 9.961,3.833C13.659,3.833 16.667,6.824 16.667,10.5C16.667,14.176 13.676,17.167 10,17.167Z" style="fill:rgb(255,53,53);fill-rule:nonzero;"/>
        <path d="M9.167,6.333L10.833,6.333L10.833,12.167L9.167,12.167L9.167,6.333ZM9.167,13L10.833,13L10.833,14.667L9.167,14.667L9.167,13Z" style="fill:rgb(255,53,53);fill-rule:nonzero;"/>
    </g>
</svg>
