<?xml version="1.0" encoding="UTF-8" standalone="no"?>
<!DOCTYPE svg PUBLIC "-//W3C//DTD SVG 1.1//EN" "http://www.w3.org/Graphics/SVG/1.1/DTD/svg11.dtd">
<svg width="100%" height="100%" viewBox="0 0 20 20" version="1.1" xmlns="http://www.w3.org/2000/svg" xmlns:xlink="http://www.w3.org/1999/xlink" xml:space="preserve" xmlns:serif="http://www.serif.com/" style="fill-rule:evenodd;clip-rule:evenodd;stroke-linejoin:round;stroke-miterlimit:1.41421;">
    <g transform="matrix(1,0,0,1,0,1)">
        <path d="M11.162,3.559C10.781,3.517 10.393,3.494 10,3.488C8.283,3.495 6.503,3.913 4.818,4.713C3.567,5.332 2.349,6.206 1.29,7.283C0.771,7.833 0.107,8.629 0,9.479C0.013,10.215 0.803,11.124 1.29,11.675C2.283,12.71 3.47,13.559 4.818,14.245C4.864,14.267 4.91,14.289 4.956,14.311L3.705,16.496L5.405,17.5L14.595,1.5L12.959,0.5L11.162,3.559ZM15.043,4.65L13.794,6.814C14.368,7.561 14.71,8.481 14.71,9.479C14.71,11.967 12.601,13.983 9.999,13.983C9.886,13.983 9.777,13.971 9.667,13.964L8.84,15.395C9.221,15.435 9.607,15.465 10,15.47C11.719,15.463 13.498,15.04 15.181,14.245C16.432,13.626 17.651,12.753 18.71,11.675C19.23,11.125 19.893,10.329 20,9.479C19.987,8.743 19.197,7.835 18.71,7.283C17.717,6.248 16.529,5.399 15.181,4.713C15.135,4.691 15.089,4.671 15.043,4.65ZM9.999,4.975C10.113,4.975 10.226,4.979 10.338,4.987L9.37,6.663C8.012,6.938 6.992,8.094 6.992,9.478C6.992,9.825 7.056,10.158 7.174,10.467L7.174,10.468L6.204,12.149C5.628,11.402 5.288,10.478 5.288,9.479C5.288,6.991 7.397,4.975 9.999,4.975ZM12.815,8.509L10.634,12.288C11.985,12.007 12.997,10.857 12.997,9.478C12.997,9.137 12.929,8.812 12.815,8.509Z" style="fill:rgb(173,173,173);fill-rule:nonzero;"/>
    </g>
</svg>
