<?xml version="1.0" encoding="UTF-8" standalone="no"?>
<!DOCTYPE svg PUBLIC "-//W3C//DTD SVG 1.1//EN" "http://www.w3.org/Graphics/SVG/1.1/DTD/svg11.dtd">
<svg width="100%" height="100%" viewBox="0 0 21 21" version="1.1" xmlns="http://www.w3.org/2000/svg" xmlns:xlink="http://www.w3.org/1999/xlink" xml:space="preserve" xmlns:serif="http://www.serif.com/" style="fill-rule:evenodd;clip-rule:evenodd;stroke-linejoin:round;stroke-miterlimit:1.41421;">
    <g transform="matrix(1,0,0,1,0.5,0)">
        <path d="M16.875,1.75C16.334,1.75 15.807,1.925 15.374,2.25C14.942,2.574 14.626,3.031 14.475,3.55C14.323,4.07 14.345,4.624 14.536,5.131C14.727,5.637 15.077,6.068 15.533,6.358L13.902,12.068C13.852,12.064 13.801,12.063 13.75,12.063C13.212,12.062 12.689,12.236 12.258,12.558L9.244,10.046C9.387,9.623 9.414,9.169 9.321,8.732C9.229,8.295 9.022,7.89 8.72,7.561C8.419,7.231 8.034,6.988 7.607,6.857C7.18,6.727 6.726,6.713 6.291,6.817C5.857,6.921 5.458,7.14 5.137,7.451C4.816,7.761 4.584,8.152 4.465,8.583C4.346,9.013 4.345,9.468 4.462,9.899C4.578,10.331 4.808,10.723 5.127,11.035L3.358,14.574C3.281,14.566 3.203,14.563 3.125,14.563C2.526,14.562 1.947,14.776 1.492,15.166C1.038,15.556 0.738,16.096 0.647,16.688C0.557,17.28 0.682,17.885 0.999,18.392C1.317,18.9 1.806,19.278 2.377,19.456C2.949,19.634 3.566,19.601 4.116,19.363C4.665,19.125 5.111,18.698 5.373,18.16C5.635,17.621 5.695,17.006 5.542,16.427C5.389,15.848 5.034,15.343 4.541,15.004L6.213,11.66C6.619,11.772 7.047,11.78 7.456,11.682C7.866,11.583 8.244,11.383 8.556,11.099L11.474,13.531C11.275,13.968 11.207,14.452 11.277,14.927C11.346,15.401 11.551,15.846 11.866,16.207C12.181,16.569 12.593,16.832 13.054,16.965C13.514,17.099 14.004,17.097 14.463,16.96C14.923,16.824 15.333,16.558 15.646,16.194C15.959,15.83 16.16,15.384 16.226,14.91C16.293,14.435 16.221,13.951 16.02,13.515C15.818,13.08 15.496,12.712 15.092,12.455L16.723,6.745C16.773,6.748 16.824,6.75 16.875,6.75C17.538,6.75 18.174,6.487 18.643,6.018C19.112,5.549 19.375,4.913 19.375,4.25C19.375,3.587 19.112,2.951 18.643,2.482C18.174,2.013 17.538,1.75 16.875,1.75ZM3.125,18.313C2.878,18.313 2.636,18.239 2.431,18.102C2.225,17.965 2.065,17.769 1.97,17.541C1.876,17.312 1.851,17.061 1.899,16.819C1.947,16.576 2.066,16.353 2.241,16.179C2.416,16.004 2.639,15.885 2.881,15.836C3.124,15.788 3.375,15.813 3.603,15.908C3.832,16.002 4.027,16.163 4.164,16.368C4.302,16.574 4.375,16.815 4.375,17.063C4.375,17.394 4.243,17.712 4.008,17.946C3.774,18.18 3.456,18.312 3.125,18.313ZM6.875,10.5C6.628,10.5 6.386,10.427 6.181,10.289C5.975,10.152 5.815,9.957 5.72,9.728C5.626,9.5 5.601,9.249 5.649,9.006C5.697,8.764 5.816,8.541 5.991,8.366C6.166,8.191 6.389,8.072 6.631,8.024C6.874,7.976 7.125,8.001 7.353,8.095C7.582,8.19 7.777,8.35 7.914,8.556C8.052,8.761 8.125,9.003 8.125,9.25C8.125,9.581 7.993,9.899 7.758,10.134C7.524,10.368 7.206,10.5 6.875,10.5ZM13.75,15.813C13.503,15.813 13.261,15.739 13.056,15.602C12.85,15.464 12.69,15.269 12.595,15.041C12.501,14.812 12.476,14.561 12.524,14.319C12.572,14.076 12.691,13.853 12.866,13.679C13.041,13.504 13.264,13.385 13.506,13.336C13.749,13.288 14,13.313 14.228,13.408C14.457,13.502 14.652,13.663 14.789,13.868C14.927,14.074 15,14.315 15,14.563C15,14.894 14.868,15.212 14.634,15.446C14.399,15.68 14.081,15.812 13.75,15.813ZM16.875,5.5C16.628,5.5 16.386,5.427 16.18,5.289C15.975,5.152 15.815,4.957 15.72,4.728C15.626,4.5 15.601,4.249 15.649,4.006C15.697,3.764 15.816,3.541 15.991,3.366C16.166,3.191 16.389,3.072 16.631,3.024C16.874,2.976 17.125,3.001 17.353,3.095C17.582,3.19 17.777,3.35 17.914,3.556C18.052,3.761 18.125,4.003 18.125,4.25C18.125,4.581 17.993,4.899 17.759,5.133C17.524,5.368 17.206,5.5 16.875,5.5Z" style="fill:rgb(200,36,47);fill-rule:nonzero;"/>
    </g>
</svg>
