<svg width="142" height="30" viewBox="0 0 142 30" fill="none" xmlns="http://www.w3.org/2000/svg">
<g clip-path="url(#clip0_159_160)">
<path d="M41.6311 6.0864C43.4861 6.0864 45.0272 6.55295 46.2544 7.48605C47.4816 8.41915 48.3092 9.68448 48.7373 11.2821H46.1474C45.7907 10.3773 45.2198 9.66327 44.435 9.14019C43.6645 8.60293 42.7155 8.33433 41.5882 8.33433C40.6893 8.33433 39.883 8.55348 39.1695 8.99174C38.4704 9.43 37.9138 10.0592 37.5 10.8792C37.1005 11.685 36.9007 12.6322 36.9007 13.7209C36.9007 14.7953 37.1005 15.7426 37.5 16.5626C37.9138 17.3685 38.4704 17.9906 39.1695 18.4288C39.883 18.8671 40.6893 19.0862 41.5882 19.0862C42.7155 19.0862 43.6645 18.8247 44.435 18.3016C45.2198 17.7643 45.7907 17.0504 46.1474 16.1597H48.7373C48.3092 17.7573 47.4816 19.0226 46.2544 19.9557C45.0272 20.8747 43.4861 21.3342 41.6311 21.3342C40.2041 21.3342 38.9412 21.0161 37.8425 20.3798C36.7437 19.7295 35.8947 18.8317 35.2953 17.6866C34.696 16.5273 34.3964 15.2054 34.3964 13.7209C34.3964 12.2364 34.696 10.9216 35.2953 9.77639C35.8947 8.6171 36.7437 7.71224 37.8425 7.06191C38.9412 6.41158 40.2041 6.0864 41.6311 6.0864ZM56.5656 9.37346C57.7073 9.37346 58.7347 9.61383 59.6478 10.0945C60.5614 10.5752 61.2746 11.268 61.7883 12.1728C62.302 13.0776 62.5588 14.1379 62.5588 15.3538C62.5588 16.5838 62.302 17.6512 61.7883 18.5561C61.2746 19.4609 60.5614 20.1537 59.6478 20.6343C58.7347 21.115 57.7073 21.3554 56.5656 21.3554C55.4244 21.3554 54.397 21.115 53.4834 20.6343C52.5844 20.1537 51.8711 19.4609 51.3431 18.5561C50.8294 17.6371 50.5726 16.5697 50.5726 15.3538C50.5726 14.1379 50.8294 13.0776 51.3431 12.1728C51.8711 11.268 52.5844 10.5752 53.4834 10.0945C54.397 9.61383 55.4244 9.37346 56.5656 9.37346ZM56.5656 11.4729C55.9381 11.4729 55.3602 11.6143 54.8318 11.8971C54.304 12.1799 53.8759 12.6181 53.5476 13.2119C53.2338 13.7916 53.0767 14.5055 53.0767 15.3538C53.0767 16.2162 53.2338 16.9372 53.5476 17.5169C53.8759 18.0966 54.304 18.5278 54.8318 18.8105C55.3602 19.0933 55.9381 19.2347 56.5656 19.2347C57.1936 19.2347 57.7715 19.0933 58.2993 18.8105C58.8277 18.5278 59.2485 18.0966 59.5622 17.5169C59.8906 16.9372 60.0545 16.2162 60.0545 15.3538C60.0545 14.5055 59.8906 13.7916 59.5622 13.2119C59.2485 12.6181 58.8277 12.1799 58.2993 11.8971C57.7715 11.6143 57.1936 11.4729 56.5656 11.4729ZM79.6526 9.33105C81.0512 9.33105 82.1642 9.76931 82.9917 10.6459C83.8338 11.5224 84.2546 12.7737 84.2546 14.3995V21.2069H81.8144V14.654C81.8144 13.636 81.5576 12.8514 81.0439 12.3C80.5302 11.7345 79.8238 11.4517 78.9248 11.4517C77.969 11.4517 77.2052 11.7557 76.6346 12.3636C76.0781 12.9574 75.7998 13.834 75.7998 14.9933V21.2069H73.3597V14.654C73.3597 13.636 73.1029 12.8514 72.5891 12.3C72.0754 11.7345 71.3691 11.4517 70.4701 11.4517C69.5142 11.4517 68.7504 11.7557 68.1798 12.3636C67.6233 12.9574 67.3451 13.834 67.3451 14.9933V21.2069H64.905V9.52191H67.3451V11.9607C67.6447 11.1124 68.1443 10.4621 68.8434 10.0097C69.5424 9.55724 70.3631 9.33105 71.3049 9.33105C72.2895 9.33105 73.1383 9.57141 73.852 10.0521C74.5798 10.5328 75.1076 11.2256 75.4359 12.1304C75.7784 11.2538 76.3276 10.5681 77.0841 10.0733C77.8405 9.57845 78.6967 9.33105 79.6526 9.33105ZM93.8677 9.37346C94.8951 9.37346 95.8082 9.61383 96.6075 10.0945C97.4209 10.5752 98.0557 11.268 98.5125 12.1728C98.9688 13.0776 99.1974 14.1379 99.1974 15.3538C99.1974 16.5838 98.9688 17.6512 98.5125 18.5561C98.0557 19.4609 97.4209 20.1537 96.6075 20.6343C95.8082 21.115 94.8951 21.3554 93.8677 21.3554C92.7975 21.3554 91.8839 21.0938 91.128 20.5707C90.3715 20.0476 89.8437 19.3548 89.544 18.4924V26.7631H87.1039V9.52191H89.544V12.2364C89.8437 11.374 90.3715 10.6812 91.128 10.1581C91.8839 9.63503 92.7975 9.37346 93.8677 9.37346ZM93.1186 11.4942C92.4336 11.4942 91.8197 11.6567 91.2778 11.9819C90.7354 12.2929 90.3073 12.7454 89.9935 13.3392C89.6793 13.9188 89.5226 14.5904 89.5226 15.3538C89.5226 16.1314 89.6793 16.81 89.9935 17.3897C90.3073 17.9693 90.7354 18.4217 91.2778 18.7469C91.8197 19.0579 92.4336 19.2135 93.1186 19.2135C94.2029 19.2135 95.0732 18.8742 95.7299 18.1955C96.3861 17.5028 96.7145 16.5555 96.7145 15.3538C96.7145 14.1662 96.3861 13.226 95.7299 12.5333C95.0732 11.8406 94.2029 11.4942 93.1186 11.4942ZM106.278 9.37346C107.348 9.37346 108.261 9.63503 109.018 10.1581C109.774 10.6812 110.309 11.374 110.623 12.2364V9.52191H113.063V21.2069H110.623V18.4924C110.309 19.3548 109.774 20.0476 109.018 20.5707C108.261 21.0938 107.348 21.3554 106.278 21.3554C105.251 21.3554 104.33 21.115 103.517 20.6343C102.718 20.1537 102.09 19.4609 101.633 18.5561C101.177 17.6512 100.948 16.5838 100.948 15.3538C100.948 14.1379 101.177 13.0776 101.633 12.1728C102.09 11.268 102.718 10.5752 103.517 10.0945C104.33 9.61383 105.251 9.37346 106.278 9.37346ZM107.027 11.4942C105.942 11.4942 105.072 11.8406 104.416 12.5333C103.774 13.2119 103.453 14.1521 103.453 15.3538C103.453 16.5555 103.774 17.5028 104.416 18.1955C105.072 18.8742 105.942 19.2135 107.027 19.2135C107.712 19.2135 108.326 19.0579 108.868 18.7469C109.41 18.4217 109.838 17.9693 110.152 17.3897C110.466 16.81 110.623 16.1314 110.623 15.3538C110.623 14.5904 110.466 13.9188 110.152 13.3392C109.838 12.7454 109.41 12.2929 108.868 11.9819C108.326 11.6567 107.712 11.4942 107.027 11.4942ZM122.584 9.33105C123.954 9.33105 125.052 9.76931 125.88 10.6459C126.708 11.5224 127.122 12.7737 127.122 14.3995V21.2069H124.682V14.654C124.682 13.6078 124.41 12.8019 123.868 12.2364C123.326 11.6567 122.584 11.3669 121.642 11.3669C120.672 11.3669 119.894 11.6779 119.309 12.3C118.724 12.9079 118.432 13.8057 118.432 14.9933V21.2069H115.992V9.52191H118.432V12.0879C118.745 11.2114 119.273 10.5328 120.016 10.0521C120.757 9.57141 121.614 9.33105 122.584 9.33105ZM131.367 9.52191L134.898 18.1107L138.173 9.52191H140.892L133.764 26.7631H131.046L133.593 20.9312L128.627 9.52191H131.367Z" fill="#223137"/>
<path d="M28.495 22.0649C27.0846 24.682 24.9227 26.8259 22.2826 28.2256C19.6424 29.6253 16.6426 30.2179 13.6625 29.9284C10.6825 29.6389 7.85599 28.4805 5.54045 26.5994C3.22495 24.7184 1.52441 22.1993 0.653899 19.3607C-0.216611 16.5222 -0.217994 13.4915 0.649926 10.6522C1.51784 7.81286 3.21608 5.29224 5.52991 3.40913C7.84367 1.52602 10.6692 0.364999 13.649 0.0728753C16.6287 -0.219249 19.629 0.370646 22.2705 1.76797L20.4777 5.09478C18.5004 4.04877 16.2544 3.60719 14.0238 3.82586C11.7932 4.04454 9.67808 4.91366 7.946 6.32331C6.21391 7.73295 4.94267 9.61984 4.29296 11.7453C3.64326 13.8708 3.64429 16.1395 4.29594 18.2643C4.94758 20.3893 6.22059 22.275 7.95393 23.6831C9.68727 25.0912 11.8031 25.9584 14.0339 26.1751C16.2647 26.3918 18.5103 25.9482 20.4867 24.9004C22.463 23.8526 24.0814 22.2477 25.1372 20.2887L28.495 22.0649Z" fill="#0F3041"/>
<path d="M15.4007 22.7586C19.5814 22.7586 22.9706 19.4007 22.9706 15.2586C22.9706 11.1165 19.5814 7.75861 15.4007 7.75861C11.22 7.75861 7.83087 11.1165 7.83087 15.2586C7.83087 19.4007 11.22 22.7586 15.4007 22.7586Z" fill="#C8242F"/>
</g>
<defs>
<clipPath id="clip0_159_160">
<rect width="142" height="30" fill="white"/>
</clipPath>
</defs>
</svg>
