<?xml version="1.0" encoding="UTF-8" standalone="no"?>
<!DOCTYPE svg PUBLIC "-//W3C//DTD SVG 1.1//EN" "http://www.w3.org/Graphics/SVG/1.1/DTD/svg11.dtd">
<svg width="100%" height="100%" viewBox="0 0 21 21" version="1.1" xmlns="http://www.w3.org/2000/svg" xmlns:xlink="http://www.w3.org/1999/xlink" xml:space="preserve" xmlns:serif="http://www.serif.com/" style="fill-rule:evenodd;clip-rule:evenodd;stroke-linejoin:round;stroke-miterlimit:1.41421;">
    <g transform="matrix(1,0,0,1,0.5,0)">
        <path d="M17.289,9.217L17.285,9.201L15.094,3.633C14.996,3.318 14.705,3.102 14.375,3.102L5.492,3.102C5.16,3.102 4.865,3.322 4.771,3.641L2.723,9.152L2.717,9.166L2.713,9.182C2.688,9.277 2.68,9.375 2.693,9.471C2.691,9.502 2.689,9.533 2.689,9.564L2.689,16.711C2.69,17.026 2.815,17.328 3.038,17.55C3.26,17.773 3.562,17.898 3.877,17.898L16.127,17.898C16.781,17.898 17.315,17.365 17.316,16.711L17.316,9.564C17.316,9.539 17.316,9.514 17.315,9.492C17.322,9.396 17.315,9.305 17.289,9.217ZM11.512,8.377L11.506,8.684C11.49,9.561 10.885,10.15 10,10.15C9.568,10.15 9.197,10.012 8.93,9.748C8.662,9.484 8.516,9.117 8.508,8.684L8.502,8.377L4.482,8.377L6.035,4.602L13.832,4.602L15.428,8.377L11.512,8.377ZM4.188,9.877L7.26,9.877C7.734,10.992 8.744,11.65 10.002,11.65C10.66,11.65 11.272,11.467 11.766,11.119C12.199,10.815 12.537,10.389 12.756,9.877L15.813,9.877L15.813,16.398L4.188,16.398L4.188,9.877Z" style="fill:rgb(200,36,47);fill-rule:nonzero;"/>
    </g>
</svg>
