<?xml version="1.0" encoding="UTF-8" standalone="no"?>
<!DOCTYPE svg PUBLIC "-//W3C//DTD SVG 1.1//EN" "http://www.w3.org/Graphics/SVG/1.1/DTD/svg11.dtd">
<svg width="100%" height="100%" viewBox="0 0 21 21" version="1.1" xmlns="http://www.w3.org/2000/svg" xmlns:xlink="http://www.w3.org/1999/xlink" xml:space="preserve" xmlns:serif="http://www.serif.com/" style="fill-rule:evenodd;clip-rule:evenodd;stroke-linejoin:round;stroke-miterlimit:1.41421;">
    <g transform="matrix(1,0,0,1,0.499925,-5.5e-05)">
        <path d="M9.961,18.833C5.388,18.833 1.667,15.095 1.667,10.5C1.667,5.905 5.405,2.167 10,2.167C14.595,2.167 18.333,5.905 18.333,10.5C18.333,15.095 14.578,18.833 9.961,18.833ZM10,3.833C6.324,3.833 3.333,6.824 3.333,10.5C3.333,14.176 6.306,17.167 9.961,17.167C13.659,17.167 16.667,14.176 16.667,10.5C16.667,6.824 13.676,3.833 10,3.833Z" style="fill:rgb(0,185,225);fill-rule:nonzero;"/>
        <path d="M9.167,14.666L10.833,14.666L10.833,8.833L9.167,8.833L9.167,14.666ZM9.167,8L10.833,8L10.833,6.333L9.167,6.333L9.167,8Z" style="fill:rgb(0,185,225);fill-rule:nonzero;"/>
    </g>
</svg>
