<svg width="272" height="58" viewBox="0 0 272 58" fill="none" xmlns="http://www.w3.org/2000/svg">
<g clip-path="url(#clip0_28_801)">
<path d="M79.744 11.767C83.2973 11.767 86.2493 12.669 88.6 14.473C90.9507 16.277 92.536 18.7233 93.356 21.812H88.395C87.7117 20.0627 86.6183 18.6823 85.115 17.671C83.639 16.6323 81.8213 16.113 79.662 16.113C77.94 16.113 76.3957 16.5367 75.029 17.384C73.6897 18.2313 72.6237 19.4477 71.831 21.033C71.0657 22.591 70.683 24.4223 70.683 26.527C70.683 28.6043 71.0657 30.4357 71.831 32.021C72.6237 33.579 73.6897 34.7817 75.029 35.629C76.3957 36.4763 77.94 36.9 79.662 36.9C81.8213 36.9 83.639 36.3943 85.115 35.383C86.6183 34.3443 87.7117 32.964 88.395 31.242H93.356C92.536 34.3307 90.9507 36.777 88.6 38.581C86.2493 40.3577 83.2973 41.246 79.744 41.246C77.0107 41.246 74.5917 40.631 72.487 39.401C70.3823 38.1437 68.756 36.408 67.608 34.194C66.46 31.9527 65.886 29.397 65.886 26.527C65.886 23.657 66.46 21.115 67.608 18.901C68.756 16.6597 70.3823 14.9103 72.487 13.653C74.5917 12.3957 77.0107 11.767 79.744 11.767ZM108.351 18.122C110.538 18.122 112.506 18.5867 114.255 19.516C116.005 20.4453 117.371 21.7847 118.355 23.534C119.339 25.2833 119.831 27.3333 119.831 29.684C119.831 32.062 119.339 34.1257 118.355 35.875C117.371 37.6243 116.005 38.9637 114.255 39.893C112.506 40.8223 110.538 41.287 108.351 41.287C106.165 41.287 104.197 40.8223 102.447 39.893C100.725 38.9637 99.3588 37.6243 98.3474 35.875C97.3634 34.0983 96.8714 32.0347 96.8714 29.684C96.8714 27.3333 97.3634 25.2833 98.3474 23.534C99.3588 21.7847 100.725 20.4453 102.447 19.516C104.197 18.5867 106.165 18.122 108.351 18.122ZM108.351 22.181C107.149 22.181 106.042 22.4543 105.03 23.001C104.019 23.5477 103.199 24.395 102.57 25.543C101.969 26.6637 101.668 28.044 101.668 29.684C101.668 31.3513 101.969 32.7453 102.57 33.866C103.199 34.9867 104.019 35.8203 105.03 36.367C106.042 36.9137 107.149 37.187 108.351 37.187C109.554 37.187 110.661 36.9137 111.672 36.367C112.684 35.8203 113.49 34.9867 114.091 33.866C114.72 32.7453 115.034 31.3513 115.034 29.684C115.034 28.044 114.72 26.6637 114.091 25.543C113.49 24.395 112.684 23.5477 111.672 23.001C110.661 22.4543 109.554 22.181 108.351 22.181ZM152.574 18.04C155.253 18.04 157.385 18.8873 158.97 20.582C160.583 22.2767 161.389 24.6957 161.389 27.839V41H156.715V28.331C156.715 26.363 156.223 24.846 155.239 23.78C154.255 22.6867 152.902 22.14 151.18 22.14C149.349 22.14 147.886 22.7277 146.793 23.903C145.727 25.051 145.194 26.7457 145.194 28.987V41H140.52V28.331C140.52 26.363 140.028 24.846 139.044 23.78C138.06 22.6867 136.707 22.14 134.985 22.14C133.154 22.14 131.691 22.7277 130.598 23.903C129.532 25.051 128.999 26.7457 128.999 28.987V41H124.325V18.409H128.999V23.124C129.573 21.484 130.53 20.2267 131.869 19.352C133.208 18.4773 134.78 18.04 136.584 18.04C138.47 18.04 140.096 18.5047 141.463 19.434C142.857 20.3633 143.868 21.7027 144.497 23.452C145.153 21.7573 146.205 20.4317 147.654 19.475C149.103 18.5183 150.743 18.04 152.574 18.04ZM179.803 18.122C181.771 18.122 183.52 18.5867 185.051 19.516C186.609 20.4453 187.825 21.7847 188.7 23.534C189.574 25.2833 190.012 27.3333 190.012 29.684C190.012 32.062 189.574 34.1257 188.7 35.875C187.825 37.6243 186.609 38.9637 185.051 39.893C183.52 40.8223 181.771 41.287 179.803 41.287C177.753 41.287 176.003 40.7813 174.555 39.77C173.106 38.7587 172.095 37.4193 171.521 35.752V51.742H166.847V18.409H171.521V23.657C172.095 21.9897 173.106 20.6503 174.555 19.639C176.003 18.6277 177.753 18.122 179.803 18.122ZM178.368 22.222C177.056 22.222 175.88 22.5363 174.842 23.165C173.803 23.7663 172.983 24.641 172.382 25.789C171.78 26.9097 171.48 28.208 171.48 29.684C171.48 31.1873 171.78 32.4993 172.382 33.62C172.983 34.7407 173.803 35.6153 174.842 36.244C175.88 36.8453 177.056 37.146 178.368 37.146C180.445 37.146 182.112 36.49 183.37 35.178C184.627 33.8387 185.256 32.0073 185.256 29.684C185.256 27.388 184.627 25.5703 183.37 24.231C182.112 22.8917 180.445 22.222 178.368 22.222ZM203.575 18.122C205.625 18.122 207.374 18.6277 208.823 19.639C210.271 20.6503 211.296 21.9897 211.898 23.657V18.409H216.572V41H211.898V35.752C211.296 37.4193 210.271 38.7587 208.823 39.77C207.374 40.7813 205.625 41.287 203.575 41.287C201.607 41.287 199.844 40.8223 198.286 39.893C196.755 38.9637 195.552 37.6243 194.678 35.875C193.803 34.1257 193.366 32.062 193.366 29.684C193.366 27.3333 193.803 25.2833 194.678 23.534C195.552 21.7847 196.755 20.4453 198.286 19.516C199.844 18.5867 201.607 18.122 203.575 18.122ZM205.01 22.222C202.932 22.222 201.265 22.8917 200.008 24.231C198.778 25.543 198.163 27.3607 198.163 29.684C198.163 32.0073 198.778 33.8387 200.008 35.178C201.265 36.49 202.932 37.146 205.01 37.146C206.322 37.146 207.497 36.8453 208.536 36.244C209.574 35.6153 210.394 34.7407 210.996 33.62C211.597 32.4993 211.898 31.1873 211.898 29.684C211.898 28.208 211.597 26.9097 210.996 25.789C210.394 24.641 209.574 23.7663 208.536 23.165C207.497 22.5363 206.322 22.222 205.01 22.222ZM234.809 18.04C237.433 18.04 239.537 18.8873 241.123 20.582C242.708 22.2767 243.501 24.6957 243.501 27.839V41H238.827V28.331C238.827 26.3083 238.307 24.7503 237.269 23.657C236.23 22.5363 234.809 21.976 233.005 21.976C231.146 21.976 229.656 22.5773 228.536 23.78C227.415 24.9553 226.855 26.691 226.855 28.987V41H222.181V18.409H226.855V23.37C227.456 21.6753 228.467 20.3633 229.889 19.434C231.31 18.5047 232.95 18.04 234.809 18.04ZM251.632 18.409L258.397 35.014L264.67 18.409H269.877L256.224 51.742H251.017L255.896 40.467L246.384 18.409H251.632Z" fill="#223137"/>
<path d="M54.5819 42.6589C51.8804 47.7186 47.7392 51.8635 42.6821 54.5695C37.6249 57.2756 31.8788 58.4213 26.1705 57.8616C20.4623 57.302 15.0481 55.0623 10.6127 51.4256C6.17736 47.789 2.91999 42.9187 1.25254 37.4308C-0.414916 31.9429 -0.417565 26.0837 1.24493 20.5943C2.90742 15.1049 6.16038 10.2317 10.5925 6.59101C15.0245 2.95034 20.4367 0.705694 26.1445 0.140921C31.8522 -0.423852 37.5993 0.716612 42.6589 3.4181L39.2248 9.84993C35.4373 7.82765 31.1351 6.97393 26.8624 7.3967C22.5897 7.81948 18.5383 9.49977 15.2205 12.2251C11.9027 14.9504 9.46765 18.5984 8.22314 22.7077C6.97864 26.8169 6.98062 31.203 8.22884 35.3111C9.47706 39.4193 11.9155 43.065 15.2357 45.7873C18.5559 48.5097 22.6088 50.1863 26.8819 50.6052C31.155 51.0241 35.4564 50.1665 39.2421 48.1408C43.0278 46.1151 46.1278 43.0123 48.1501 39.2248L54.5819 42.6589Z" fill="#0F3041"/>
<path d="M30.5 44C38.5081 44 45 37.5081 45 29.5C45 21.4919 38.5081 15 30.5 15C22.4919 15 16 21.4919 16 29.5C16 37.5081 22.4919 44 30.5 44Z" fill="#C8242F"/>
</g>
<defs>
<clipPath id="clip0_28_801">
<rect width="272" height="58" fill="white"/>
</clipPath>
</defs>
</svg>
