<?xml version="1.0" encoding="UTF-8" standalone="no"?>
<!DOCTYPE svg PUBLIC "-//W3C//DTD SVG 1.1//EN" "http://www.w3.org/Graphics/SVG/1.1/DTD/svg11.dtd">
<svg width="100%" height="100%" viewBox="0 0 21 21" version="1.1" xmlns="http://www.w3.org/2000/svg" xmlns:xlink="http://www.w3.org/1999/xlink" xml:space="preserve" xmlns:serif="http://www.serif.com/" style="fill-rule:evenodd;clip-rule:evenodd;stroke-linejoin:round;stroke-miterlimit:1.41421;">
    <g transform="matrix(1,0,0,1,-0.62495,0)">
        <g transform="matrix(1,0,0,1,0.5,0)">
            <path d="M18.567,12.558L16.692,10.683C16.575,10.566 16.416,10.5 16.25,10.5C16.084,10.5 15.925,10.566 15.808,10.683L10,16.491L10,19.25L12.759,19.25L18.567,13.442C18.684,13.325 18.75,13.166 18.75,13C18.75,12.834 18.684,12.675 18.567,12.558ZM12.241,18L11.25,18L11.25,17.009L14.375,13.884L15.366,14.875L12.241,18ZM16.25,13.991L15.259,13L16.25,12.009L17.241,13L16.25,13.991Z" style="fill-rule:nonzero;"/>
        </g>
        <g transform="matrix(1,0,0,1,0.5,0)">
            <path d="M12.5,8.625L12.5,7.375L11.161,7.375C11.103,7.151 11.014,6.937 10.896,6.738L11.844,5.79L10.96,4.906L10.012,5.854C9.813,5.736 9.599,5.647 9.375,5.589L9.375,4.25L8.125,4.25L8.125,5.589C7.901,5.647 7.687,5.736 7.488,5.854L6.54,4.906L5.656,5.79L6.604,6.738C6.486,6.937 6.397,7.151 6.339,7.375L5,7.375L5,8.625L6.339,8.625C6.397,8.849 6.486,9.063 6.604,9.262L5.656,10.21L6.54,11.094L7.488,10.146C7.687,10.264 7.901,10.353 8.125,10.411L8.125,11.75L9.375,11.75L9.375,10.411C9.599,10.353 9.813,10.264 10.012,10.146L10.96,11.094L11.844,10.21L10.896,9.262C11.014,9.063 11.103,8.849 11.161,8.625L12.5,8.625ZM8.75,9.25C8.503,9.25 8.261,9.177 8.056,9.039C7.85,8.902 7.69,8.707 7.595,8.478C7.501,8.25 7.476,7.999 7.524,7.756C7.572,7.514 7.691,7.291 7.866,7.116C8.041,6.941 8.264,6.822 8.506,6.774C8.749,6.726 9,6.751 9.228,6.845C9.457,6.94 9.652,7.1 9.789,7.306C9.927,7.511 10,7.753 10,8C10,8.331 9.868,8.649 9.634,8.884C9.399,9.118 9.081,9.25 8.75,9.25Z" style="fill-rule:nonzero;"/>
        </g>
        <g transform="matrix(1,0,0,1,0.5,0)">
            <path d="M7.5,19.25L3.75,19.25C3.419,19.25 3.101,19.118 2.866,18.884C2.632,18.649 2.5,18.331 2.5,18L2.5,3C2.5,2.669 2.632,2.351 2.866,2.116C3.101,1.882 3.419,1.75 3.75,1.75L13.75,1.75C14.081,1.75 14.399,1.882 14.634,2.116C14.868,2.351 15,2.669 15,3L15,9.25L13.75,9.25L13.75,3L3.75,3L3.75,18L7.5,18L7.5,19.25Z" style="fill-rule:nonzero;"/>
        </g>
    </g>
</svg>
