<svg width="24" height="24" viewBox="0 0 24 24" fill="none" xmlns="http://www.w3.org/2000/svg">
<path d="M4.28571 6H10.7143C11.0553 6 11.3823 6.12643 11.6234 6.35147C11.8645 6.57652 12 6.88174 12 7.2C12 7.51826 11.8645 7.82348 11.6234 8.04853C11.3823 8.27357 11.0553 8.4 10.7143 8.4H4.28571C3.94472 8.4 3.6177 8.27357 3.37658 8.04853C3.13546 7.82348 3 7.51826 3 7.2C3 6.88174 3.13546 6.57652 3.37658 6.35147C3.6177 6.12643 3.94472 6 4.28571 6ZM13.2857 15.6H19.7143C20.0553 15.6 20.3823 15.7264 20.6234 15.9515C20.8645 16.1765 21 16.4817 21 16.8C21 17.1183 20.8645 17.4235 20.6234 17.6485C20.3823 17.8736 20.0553 18 19.7143 18H13.2857C12.9447 18 12.6177 17.8736 12.3766 17.6485C12.1355 17.4235 12 17.1183 12 16.8C12 16.4817 12.1355 16.1765 12.3766 15.9515C12.6177 15.7264 12.9447 15.6 13.2857 15.6ZM4.28571 10.8H19.7143C20.0553 10.8 20.3823 10.9264 20.6234 11.1515C20.8645 11.3765 21 11.6817 21 12C21 12.3183 20.8645 12.6235 20.6234 12.8485C20.3823 13.0736 20.0553 13.2 19.7143 13.2H4.28571C3.94472 13.2 3.6177 13.0736 3.37658 12.8485C3.13546 12.6235 3 12.3183 3 12C3 11.6817 3.13546 11.3765 3.37658 11.1515C3.6177 10.9264 3.94472 10.8 4.28571 10.8Z" fill="black"/>
</svg>
