<?xml version="1.0" encoding="UTF-8" standalone="no"?>
<!DOCTYPE svg PUBLIC "-//W3C//DTD SVG 1.1//EN" "http://www.w3.org/Graphics/SVG/1.1/DTD/svg11.dtd">
<svg width="100%" height="100%" viewBox="0 0 30 30" version="1.1" xmlns="http://www.w3.org/2000/svg" xmlns:xlink="http://www.w3.org/1999/xlink" xml:space="preserve" xmlns:serif="http://www.serif.com/" style="fill-rule:evenodd;clip-rule:evenodd;stroke-linejoin:round;stroke-miterlimit:1.41421;">
    <g transform="matrix(1,0,0,1,0.7525,1.82663e-05)">
        <g>
            <path d="M28.495,22.065C27.085,24.682 24.923,26.826 22.283,28.226C19.642,29.625 16.643,30.218 13.663,29.928C10.682,29.639 7.856,28.481 5.54,26.599C3.225,24.718 1.524,22.199 0.654,19.361C-0.217,16.522 -0.218,13.492 0.65,10.652C1.518,7.813 3.216,5.292 5.53,3.409C7.844,1.526 10.669,0.365 13.649,0.073C16.629,-0.219 19.629,0.371 22.27,1.768L20.478,5.095C18.5,4.049 16.254,3.607 14.024,3.826C11.793,4.045 9.678,4.914 7.946,6.323C6.214,7.733 4.943,9.62 4.293,11.745C3.643,13.871 3.644,16.14 4.296,18.264C4.948,20.389 6.221,22.275 7.954,23.683C9.687,25.091 11.803,25.958 14.034,26.175C16.265,26.392 18.51,25.948 20.487,24.9C22.463,23.853 24.081,22.248 25.137,20.289L28.495,22.065Z" style="fill:rgb(15,48,65);fill-rule:nonzero;"/>
            <path d="M15.401,22.759C19.581,22.759 22.971,19.401 22.971,15.259C22.971,11.117 19.581,7.759 15.401,7.759C11.22,7.759 7.831,11.117 7.831,15.259C7.831,19.401 11.22,22.759 15.401,22.759Z" style="fill:rgb(200,36,47);fill-rule:nonzero;"/>
        </g>
    </g>
</svg>
