<svg width="40" height="40" viewBox="0 0 40 40" fill="none" xmlns="http://www.w3.org/2000/svg">
<path fill-rule="evenodd" clip-rule="evenodd" d="M20.0326 5C16.2684 5 12.8392 6.24333 10.8101 7.25917C10.6267 7.35083 10.4559 7.44083 10.2967 7.5275C9.98173 7.69917 9.7134 7.85917 9.50006 8L11.8084 11.3983L12.8951 11.8308C17.1417 13.9733 22.8367 13.9733 27.0842 11.8308L28.3176 11.1908L30.5001 8C30.048 7.70505 29.5779 7.43869 29.0926 7.2025C27.0734 6.1975 23.7259 5 20.0334 5H20.0326ZM14.6642 8.84667C13.8468 8.69372 13.0395 8.49112 12.2467 8.24C14.1476 7.39583 16.9801 6.5 20.0326 6.5C22.1467 6.5 24.1459 6.93 25.7992 7.475C23.8617 7.7475 21.7942 8.21 19.8242 8.77917C18.2742 9.2275 16.4626 9.17917 14.6642 8.84667ZM27.9642 13.0667L27.7592 13.17C23.0876 15.5267 16.8909 15.5267 12.2192 13.17L12.0251 13.0717C5.00673 20.7725 -0.351603 34.9975 20.0326 34.9975C40.4167 34.9975 34.9276 20.5067 27.9642 13.0667ZM19.1667 20C18.7247 20 18.3008 20.1756 17.9882 20.4882C17.6757 20.8007 17.5001 21.2246 17.5001 21.6667C17.5001 22.1087 17.6757 22.5326 17.9882 22.8452C18.3008 23.1577 18.7247 23.3333 19.1667 23.3333V20ZM20.8334 18.3333V17.5H19.1667V18.3333C18.2827 18.3333 17.4348 18.6845 16.8097 19.3096C16.1846 19.9348 15.8334 20.7826 15.8334 21.6667C15.8334 22.5507 16.1846 23.3986 16.8097 24.0237C17.4348 24.6488 18.2827 25 19.1667 25V28.3333C18.4417 28.3333 17.8242 27.8708 17.5942 27.2225C17.5601 27.1164 17.5051 27.0183 17.4323 26.9339C17.3596 26.8494 17.2707 26.7804 17.1709 26.731C17.071 26.6815 16.9623 26.6526 16.851 26.6459C16.7398 26.6392 16.6284 26.6549 16.5233 26.692C16.4183 26.7291 16.3217 26.7869 16.2394 26.862C16.1571 26.9371 16.0906 27.0279 16.044 27.1291C15.9974 27.2303 15.9716 27.3399 15.968 27.4512C15.9645 27.5626 15.9833 27.6735 16.0234 27.7775C16.2533 28.4275 16.679 28.9902 17.2419 29.3882C17.8048 29.7863 18.4773 30 19.1667 30V30.8333H20.8334V30C21.7175 30 22.5653 29.6488 23.1904 29.0237C23.8155 28.3986 24.1667 27.5507 24.1667 26.6667C24.1667 25.7826 23.8155 24.9348 23.1904 24.3096C22.5653 23.6845 21.7175 23.3333 20.8334 23.3333V20C21.5584 20 22.1759 20.4625 22.4059 21.1108C22.44 21.2169 22.4951 21.3151 22.5678 21.3995C22.6405 21.4839 22.7294 21.5529 22.8293 21.6023C22.9291 21.6518 23.0379 21.6807 23.1491 21.6874C23.2603 21.6941 23.3717 21.6785 23.4768 21.6414C23.5819 21.6042 23.6784 21.5464 23.7607 21.4713C23.8431 21.3963 23.9095 21.3054 23.9561 21.2042C24.0027 21.103 24.0286 20.9935 24.0321 20.8821C24.0356 20.7707 24.0168 20.6598 23.9767 20.5558C23.7469 19.9059 23.3212 19.3431 22.7582 18.9451C22.1953 18.5471 21.5228 18.3333 20.8334 18.3333ZM20.8334 25V28.3333C21.2754 28.3333 21.6993 28.1577 22.0119 27.8452C22.3245 27.5326 22.5001 27.1087 22.5001 26.6667C22.5001 26.2246 22.3245 25.8007 22.0119 25.4882C21.6993 25.1756 21.2754 25 20.8334 25Z" fill="#C8242F"/>
</svg>
