<svg width="40" height="40" viewBox="0 0 40 40" fill="none" xmlns="http://www.w3.org/2000/svg">
<path d="M6.66671 36.6667H26.6667V33.3333H6.66671V13.3333H3.33337V33.3333C3.33337 35.1717 4.82837 36.6667 6.66671 36.6667Z" fill="#C8242F"/>
<path d="M33.3333 3.33333H13.3333C11.495 3.33333 10 4.82833 10 6.66666V26.6667C10 28.505 11.495 30 13.3333 30H33.3333C35.1717 30 36.6667 28.505 36.6667 26.6667V6.66666C36.6667 4.82833 35.1717 3.33333 33.3333 3.33333ZM30 18.3333H25V23.3333H21.6667V18.3333H16.6667V15H21.6667V9.99999H25V15H30V18.3333Z" fill="#C8242F"/>
</svg>
