<svg width="26" height="26" viewBox="0 0 26 26" fill="none" xmlns="http://www.w3.org/2000/svg">
<path d="M13 24.7578C13.455 24.7473 13.8916 24.5763 14.2326 24.2749C14.5736 23.9736 14.797 23.5613 14.8633 23.1111H11.0645C11.1327 23.5736 11.3666 23.9955 11.7226 24.2984C12.0787 24.6013 12.5326 24.7645 13 24.7578Z" fill="#3E3E3E"/>
<path d="M23.4795 20.0995C22.7831 19.4786 22.1734 18.7668 21.6668 17.9833C21.1137 16.9019 20.7822 15.7208 20.6918 14.5095V10.9417C20.6888 10.5083 20.6502 10.0759 20.5762 9.6489C20.0078 9.53527 19.4614 9.3304 18.9584 9.04223C19.1502 9.65962 19.2476 10.3024 19.2473 10.9489V14.5167C19.3358 15.9944 19.7423 17.4355 20.439 18.7417C20.9376 19.5318 21.5293 20.2592 22.2012 20.9083H3.7051C4.37706 20.2592 4.9687 19.5318 5.46733 18.7417C6.16399 17.4355 6.57047 15.9944 6.65899 14.5167V10.9417C6.65519 10.1058 6.8163 9.27746 7.13309 8.50397C7.44988 7.73049 7.91613 7.02708 8.50515 6.43404C9.09416 5.841 9.79437 5.36997 10.5657 5.04792C11.337 4.72587 12.1643 4.55912 13.0001 4.55723C14.2234 4.55821 15.4192 4.91997 16.4379 5.59723C16.3256 5.18483 16.2625 4.76058 16.2501 4.33334V3.87834C15.496 3.50738 14.6859 3.26336 13.8523 3.15612V2.24612C13.8523 1.99041 13.7507 1.74517 13.5699 1.56435C13.3891 1.38353 13.1439 1.28195 12.8882 1.28195C12.6324 1.28195 12.3872 1.38353 12.2064 1.56435C12.0256 1.74517 11.924 1.99041 11.924 2.24612V3.19223C10.0576 3.45552 8.34941 4.38516 7.11487 5.80952C5.88034 7.23387 5.2028 9.05678 5.20733 10.9417V14.5095C5.11687 15.7208 4.78539 16.9019 4.23233 17.9833C3.73463 18.765 3.13469 19.4767 2.44844 20.0995C2.3714 20.1671 2.30966 20.2504 2.26732 20.3438C2.22498 20.4372 2.20301 20.5386 2.20288 20.6411V21.6233C2.20288 21.8149 2.27897 21.9986 2.41441 22.134C2.54986 22.2695 2.73356 22.3456 2.9251 22.3456H23.0029C23.1944 22.3456 23.3781 22.2695 23.5136 22.134C23.649 21.9986 23.7251 21.8149 23.7251 21.6233V20.6411C23.725 20.5386 23.703 20.4372 23.6607 20.3438C23.6183 20.2504 23.5566 20.1671 23.4795 20.0995Z" fill="#3E3E3E"/>
<path d="M21.6665 7.94445C23.6609 7.94445 25.2776 6.3277 25.2776 4.33334C25.2776 2.33898 23.6609 0.722229 21.6665 0.722229C19.6722 0.722229 18.0554 2.33898 18.0554 4.33334C18.0554 6.3277 19.6722 7.94445 21.6665 7.94445Z" fill="#C8242F"/>
</svg>
