<svg width="246" height="246" viewBox="0 0 246 246" fill="none" xmlns="http://www.w3.org/2000/svg">
<path d="M216.229 134.939C218.98 113.453 214.227 91.6761 202.772 73.2914C191.317 54.9067 173.864 41.0422 153.365 34.0427L145.468 57.1716C160.637 62.3512 173.552 72.6109 182.029 86.2156C190.505 99.8203 194.023 115.935 191.987 131.835L216.229 134.939Z" fill="#EBC844"/>
<path d="M157.552 210.416C172.27 204.597 185.28 195.156 195.376 182.969C205.473 170.782 212.329 156.243 215.309 140.7L191.306 136.098C189.101 147.6 184.028 158.359 176.556 167.377C169.085 176.396 159.457 183.382 148.566 187.688L157.552 210.416Z" fill="#A2B86C"/>
<path d="M44.1452 175.18C55.5024 192.676 72.3566 205.898 92.0539 212.763C111.751 219.628 133.172 219.747 152.944 213.1L145.156 189.934C130.525 194.853 114.673 194.765 100.097 189.685C85.5215 184.605 73.0493 174.82 64.645 161.873L44.1452 175.18Z" fill="#F16C20"/>
<path d="M32.4085 170.552C22.4102 153.031 17.8322 132.938 19.2534 112.814C20.6747 92.6904 28.0314 73.4402 40.3932 57.4977C52.755 41.5552 69.5666 29.6364 88.7023 23.2485C107.838 16.8606 128.438 16.2905 147.898 21.6104L137.559 59.4286C125.579 56.1535 112.897 56.5044 101.117 60.437C89.3362 64.3696 78.9864 71.7071 71.3761 81.5218C63.7659 91.3365 59.2369 103.187 58.3619 115.576C57.487 127.965 60.3053 140.335 66.4605 151.122L32.4085 170.552Z" fill="#C8242F"/>
<path d="M116.339 139.336H117.745V146.55C117.745 147.351 117.567 148.018 117.21 148.55C116.854 149.082 116.38 149.482 115.79 149.751C115.204 150.015 114.566 150.146 113.878 150.146C113.155 150.146 112.501 150.015 111.915 149.751C111.334 149.482 110.873 149.082 110.531 148.55C110.194 148.018 110.025 147.351 110.025 146.55V139.336H111.424V146.55C111.424 147.107 111.527 147.566 111.732 147.927C111.937 148.289 112.223 148.557 112.589 148.733C112.96 148.909 113.39 148.997 113.878 148.997C114.371 148.997 114.801 148.909 115.167 148.733C115.538 148.557 115.826 148.289 116.031 147.927C116.236 147.566 116.339 147.107 116.339 146.55V139.336ZM125.648 147.305C125.648 147.056 125.609 146.836 125.531 146.646C125.458 146.45 125.326 146.274 125.135 146.118C124.95 145.962 124.691 145.813 124.359 145.671C124.032 145.53 123.617 145.386 123.114 145.239C122.586 145.083 122.11 144.91 121.686 144.719C121.261 144.524 120.897 144.302 120.594 144.053C120.292 143.804 120.06 143.518 119.898 143.196C119.737 142.874 119.657 142.505 119.657 142.09C119.657 141.675 119.742 141.292 119.913 140.94C120.084 140.588 120.328 140.283 120.646 140.024C120.968 139.761 121.351 139.556 121.795 139.409C122.24 139.263 122.735 139.189 123.282 139.189C124.083 139.189 124.762 139.343 125.318 139.651C125.88 139.954 126.307 140.352 126.6 140.845C126.893 141.333 127.04 141.855 127.04 142.412H125.633C125.633 142.012 125.548 141.658 125.377 141.35C125.206 141.038 124.947 140.793 124.601 140.618C124.254 140.437 123.814 140.347 123.282 140.347C122.779 140.347 122.364 140.422 122.037 140.574C121.71 140.725 121.466 140.93 121.305 141.189C121.148 141.448 121.07 141.743 121.07 142.075C121.07 142.3 121.117 142.505 121.209 142.69C121.307 142.871 121.456 143.04 121.656 143.196C121.861 143.352 122.12 143.496 122.433 143.628C122.75 143.76 123.128 143.887 123.568 144.009C124.173 144.18 124.696 144.37 125.135 144.58C125.575 144.79 125.936 145.027 126.219 145.291C126.507 145.549 126.72 145.845 126.856 146.177C126.998 146.504 127.069 146.875 127.069 147.29C127.069 147.725 126.981 148.118 126.805 148.469C126.629 148.821 126.378 149.121 126.051 149.37C125.724 149.619 125.331 149.812 124.872 149.949C124.417 150.081 123.91 150.146 123.348 150.146C122.855 150.146 122.369 150.078 121.891 149.941C121.417 149.805 120.985 149.6 120.594 149.326C120.208 149.053 119.898 148.716 119.664 148.315C119.435 147.91 119.32 147.441 119.32 146.909H120.726C120.726 147.275 120.797 147.59 120.938 147.854C121.08 148.113 121.273 148.328 121.517 148.499C121.766 148.669 122.047 148.796 122.359 148.879C122.677 148.958 123.006 148.997 123.348 148.997C123.841 148.997 124.259 148.928 124.601 148.792C124.942 148.655 125.201 148.459 125.377 148.206C125.558 147.952 125.648 147.651 125.648 147.305ZM132.818 140.281L129.288 150H127.845L131.91 139.336H132.84L132.818 140.281ZM135.777 150L132.24 140.281L132.218 139.336H133.148L137.228 150H135.777ZM135.594 146.052V147.209H129.603V146.052H135.594Z" fill="#3E3E3E"/>
<path d="M89.75 106.159V119H87.6318V108.673L84.4941 109.736V107.987L89.4951 106.159H89.75ZM99.9805 106.159V119H97.8623V108.673L94.7246 109.736V107.987L99.7256 106.159H99.9805ZM106.537 116.961L106.528 118.473C106.528 119.07 106.379 119.686 106.08 120.318C105.781 120.951 105.386 121.473 104.894 121.883L103.76 121.224C103.924 120.96 104.073 120.693 104.208 120.424C104.343 120.154 104.451 119.867 104.533 119.562C104.615 119.258 104.656 118.921 104.656 118.552V116.961H106.537ZM117.031 117.312V119H108.453V117.55L112.619 113.006C113.076 112.49 113.437 112.045 113.7 111.67C113.964 111.295 114.148 110.958 114.254 110.659C114.365 110.354 114.421 110.059 114.421 109.771C114.421 109.367 114.345 109.013 114.192 108.708C114.046 108.397 113.829 108.154 113.542 107.979C113.255 107.797 112.906 107.706 112.496 107.706C112.021 107.706 111.623 107.809 111.301 108.014C110.979 108.219 110.735 108.503 110.571 108.866C110.407 109.224 110.325 109.634 110.325 110.097H108.207C108.207 109.353 108.377 108.673 108.717 108.058C109.057 107.437 109.549 106.944 110.193 106.581C110.838 106.212 111.614 106.027 112.522 106.027C113.378 106.027 114.104 106.171 114.702 106.458C115.3 106.745 115.754 107.152 116.064 107.68C116.381 108.207 116.539 108.831 116.539 109.552C116.539 109.95 116.475 110.346 116.346 110.738C116.217 111.131 116.032 111.523 115.792 111.916C115.558 112.303 115.279 112.692 114.957 113.085C114.635 113.472 114.28 113.864 113.894 114.263L111.125 117.312H117.031ZM127.183 106.203V107.363L122.067 119H119.835L124.941 107.891H118.314V106.203H127.183ZM137.281 115.511C137.281 116.308 137.097 116.979 136.728 117.523C136.358 118.068 135.854 118.481 135.216 118.763C134.583 119.038 133.868 119.176 133.071 119.176C132.274 119.176 131.557 119.038 130.918 118.763C130.279 118.481 129.775 118.068 129.406 117.523C129.037 116.979 128.853 116.308 128.853 115.511C128.853 114.983 128.955 114.506 129.16 114.078C129.365 113.645 129.655 113.272 130.03 112.962C130.411 112.646 130.856 112.402 131.366 112.232C131.882 112.062 132.444 111.978 133.054 111.978C133.862 111.978 134.586 112.127 135.225 112.426C135.863 112.725 136.364 113.138 136.728 113.665C137.097 114.192 137.281 114.808 137.281 115.511ZM135.154 115.405C135.154 114.978 135.066 114.603 134.891 114.28C134.715 113.958 134.469 113.709 134.152 113.533C133.836 113.357 133.47 113.27 133.054 113.27C132.632 113.27 132.266 113.357 131.955 113.533C131.645 113.709 131.401 113.958 131.226 114.28C131.056 114.603 130.971 114.978 130.971 115.405C130.971 115.839 131.056 116.214 131.226 116.53C131.396 116.841 131.639 117.078 131.955 117.242C132.271 117.406 132.644 117.488 133.071 117.488C133.499 117.488 133.868 117.406 134.179 117.242C134.489 117.078 134.729 116.841 134.899 116.53C135.069 116.214 135.154 115.839 135.154 115.405ZM136.991 109.569C136.991 110.208 136.821 110.776 136.481 111.274C136.147 111.772 135.685 112.165 135.093 112.452C134.501 112.733 133.827 112.874 133.071 112.874C132.31 112.874 131.63 112.733 131.032 112.452C130.44 112.165 129.975 111.772 129.635 111.274C129.301 110.776 129.134 110.208 129.134 109.569C129.134 108.808 129.301 108.166 129.635 107.645C129.975 107.117 130.44 106.716 131.032 106.44C131.624 106.165 132.301 106.027 133.062 106.027C133.824 106.027 134.501 106.165 135.093 106.44C135.685 106.716 136.147 107.117 136.481 107.645C136.821 108.166 136.991 108.808 136.991 109.569ZM134.873 109.64C134.873 109.259 134.797 108.925 134.645 108.638C134.498 108.345 134.29 108.116 134.021 107.952C133.751 107.788 133.432 107.706 133.062 107.706C132.693 107.706 132.374 107.785 132.104 107.943C131.835 108.102 131.627 108.324 131.48 108.611C131.334 108.898 131.261 109.241 131.261 109.64C131.261 110.032 131.334 110.375 131.48 110.668C131.627 110.955 131.835 111.181 132.104 111.345C132.38 111.509 132.702 111.591 133.071 111.591C133.44 111.591 133.76 111.509 134.029 111.345C134.299 111.181 134.507 110.955 134.653 110.668C134.8 110.375 134.873 110.032 134.873 109.64Z" fill="#3E3E3E"/>
</svg>
