<?xml version="1.0" encoding="UTF-8" standalone="no"?>
<!DOCTYPE svg PUBLIC "-//W3C//DTD SVG 1.1//EN" "http://www.w3.org/Graphics/SVG/1.1/DTD/svg11.dtd">
<svg width="100%" height="100%" viewBox="0 0 20 20" version="1.1" xmlns="http://www.w3.org/2000/svg" xmlns:xlink="http://www.w3.org/1999/xlink" xml:space="preserve" xmlns:serif="http://www.serif.com/" style="fill-rule:evenodd;clip-rule:evenodd;stroke-linejoin:round;stroke-miterlimit:1.41421;">
    <g transform="matrix(1,0,0,1,1.4922,-0.417112)">
        <path d="M8.5,13.333C8.334,13.334 8.174,13.266 8.047,13.142L3.797,8.975C3.652,8.834 3.561,8.63 3.544,8.41C3.527,8.19 3.584,7.97 3.705,7.8C3.825,7.63 3.998,7.523 4.185,7.502C4.372,7.482 4.559,7.55 4.703,7.692L8.5,11.425L12.297,7.825C12.369,7.756 12.453,7.704 12.542,7.673C12.632,7.642 12.725,7.632 12.818,7.643C12.911,7.655 13.001,7.688 13.083,7.741C13.165,7.793 13.237,7.864 13.295,7.95C13.36,8.036 13.409,8.136 13.44,8.245C13.47,8.354 13.481,8.47 13.472,8.584C13.462,8.698 13.433,8.809 13.386,8.909C13.338,9.009 13.274,9.097 13.196,9.167L8.946,13.192C8.815,13.296 8.658,13.346 8.5,13.333Z" style="fill:rgb(173,173,173);fill-rule:nonzero;"/>
    </g>
</svg>
