<?xml version="1.0" encoding="UTF-8" standalone="no"?>
<!DOCTYPE svg PUBLIC "-//W3C//DTD SVG 1.1//EN" "http://www.w3.org/Graphics/SVG/1.1/DTD/svg11.dtd">
<svg width="100%" height="100%" viewBox="0 0 21 21" version="1.1" xmlns="http://www.w3.org/2000/svg" xmlns:xlink="http://www.w3.org/1999/xlink" xml:space="preserve" xmlns:serif="http://www.serif.com/" style="fill-rule:evenodd;clip-rule:evenodd;stroke-linejoin:round;stroke-miterlimit:1.41421;">
    <g transform="matrix(1,0,0,1,0.501968,0.00354)">
        <path d="M18.063,12.721L16.783,11.627C16.844,11.256 16.875,10.877 16.875,10.498C16.875,10.119 16.844,9.74 16.783,9.369L18.063,8.275C18.159,8.193 18.228,8.083 18.261,7.96C18.293,7.837 18.287,7.707 18.244,7.588L18.227,7.537C17.874,6.553 17.347,5.64 16.67,4.844L16.635,4.803C16.553,4.706 16.443,4.637 16.321,4.604C16.198,4.57 16.069,4.575 15.949,4.617L14.361,5.182C13.775,4.701 13.121,4.322 12.414,4.057L12.107,2.396C12.084,2.272 12.024,2.157 11.934,2.067C11.844,1.977 11.729,1.917 11.604,1.895L11.551,1.885C10.533,1.701 9.463,1.701 8.445,1.885L8.393,1.895C8.268,1.917 8.152,1.977 8.062,2.067C7.972,2.157 7.912,2.272 7.889,2.396L7.58,4.064C6.879,4.33 6.226,4.709 5.646,5.186L4.047,4.617C3.927,4.575 3.798,4.57 3.675,4.603C3.553,4.636 3.443,4.706 3.361,4.803L3.326,4.844C2.65,5.641 2.123,6.553 1.77,7.537L1.752,7.588C1.664,7.832 1.736,8.105 1.934,8.275L3.229,9.381C3.168,9.748 3.139,10.123 3.139,10.496C3.139,10.871 3.168,11.246 3.229,11.611L1.934,12.717C1.837,12.799 1.768,12.909 1.736,13.032C1.703,13.155 1.709,13.285 1.752,13.404L1.77,13.455C2.123,14.44 2.646,15.348 3.326,16.148L3.361,16.189C3.443,16.286 3.553,16.355 3.675,16.389C3.798,16.422 3.927,16.417 4.047,16.375L5.646,15.807C6.229,16.285 6.879,16.664 7.58,16.928L7.889,18.596C7.912,18.721 7.972,18.836 8.062,18.925C8.152,19.015 8.268,19.075 8.393,19.098L8.445,19.107C9.472,19.292 10.524,19.292 11.551,19.107L11.604,19.098C11.729,19.075 11.844,19.015 11.934,18.925C12.024,18.836 12.084,18.721 12.107,18.596L12.414,16.936C13.121,16.671 13.779,16.291 14.361,15.81L15.949,16.375C16.069,16.417 16.198,16.422 16.321,16.389C16.443,16.356 16.553,16.286 16.635,16.189L16.67,16.148C17.35,15.346 17.873,14.44 18.227,13.455L18.244,13.404C18.332,13.164 18.26,12.891 18.063,12.721ZM15.397,9.6C15.445,9.895 15.471,10.197 15.471,10.5C15.471,10.803 15.445,11.105 15.397,11.4L15.268,12.184L16.727,13.432C16.505,13.941 16.226,14.424 15.895,14.869L14.082,14.227L13.469,14.73C13.002,15.113 12.482,15.414 11.92,15.625L11.176,15.904L10.826,17.799C10.275,17.861 9.718,17.861 9.166,17.799L8.816,15.9L8.078,15.617C7.521,15.406 7.004,15.105 6.541,14.725L5.928,14.219L4.104,14.867C3.771,14.42 3.494,13.938 3.271,13.43L4.746,12.17L4.619,11.389C4.572,11.098 4.547,10.797 4.547,10.5C4.547,10.201 4.57,9.902 4.619,9.611L4.746,8.83L3.271,7.57C3.492,7.061 3.771,6.58 4.104,6.133L5.928,6.781L6.541,6.275C7.004,5.895 7.521,5.594 8.078,5.383L8.818,5.104L9.168,3.205C9.717,3.143 10.277,3.143 10.828,3.205L11.178,5.1L11.922,5.379C12.482,5.59 13.004,5.891 13.471,6.273L14.084,6.777L15.897,6.135C16.229,6.582 16.506,7.064 16.729,7.572L15.27,8.82L15.397,9.6ZM10,6.867C8.102,6.867 6.563,8.406 6.563,10.305C6.563,12.203 8.102,13.742 10,13.742C11.898,13.742 13.438,12.203 13.438,10.305C13.438,8.406 11.898,6.867 10,6.867ZM11.547,11.852C11.344,12.055 11.103,12.216 10.837,12.326C10.572,12.436 10.287,12.493 10,12.492C9.416,12.492 8.867,12.264 8.453,11.852C8.25,11.649 8.088,11.408 7.978,11.142C7.868,10.877 7.812,10.592 7.813,10.305C7.813,9.721 8.041,9.172 8.453,8.758C8.867,8.344 9.416,8.117 10,8.117C10.584,8.117 11.133,8.344 11.547,8.758C11.75,8.961 11.912,9.202 12.022,9.467C12.132,9.733 12.188,10.017 12.188,10.305C12.188,10.889 11.959,11.438 11.547,11.852Z" style="fill-rule:nonzero;"/>
    </g>
</svg>
