<svg width="40" height="40" viewBox="0 0 40 40" fill="none" xmlns="http://www.w3.org/2000/svg">
<path d="M36.5783 15.2983C36.4735 14.9898 36.2807 14.7186 36.0236 14.5184C35.7665 14.3182 35.4564 14.1977 35.1316 14.1717L25.63 13.4167L21.5183 4.31499C21.3874 4.02185 21.1744 3.77286 20.905 3.59809C20.6357 3.42332 20.3216 3.33022 20.0005 3.33005C19.6794 3.32987 19.3652 3.42262 19.0957 3.5971C18.8262 3.77157 18.6129 4.02032 18.4816 4.31333L14.37 13.4167L4.8683 14.1717C4.54905 14.1969 4.24386 14.3137 3.98922 14.5079C3.73458 14.7021 3.54128 14.9655 3.43245 15.2667C3.32362 15.5679 3.30386 15.894 3.37554 16.2062C3.44722 16.5183 3.6073 16.8031 3.83663 17.0267L10.8583 23.8717L8.37496 34.625C8.29956 34.9505 8.32373 35.2911 8.44433 35.6027C8.56493 35.9143 8.7764 36.1825 9.0513 36.3724C9.3262 36.5623 9.65183 36.6652 9.98594 36.6677C10.32 36.6703 10.6472 36.5724 10.925 36.3867L20 30.3367L29.075 36.3867C29.3589 36.5751 29.6937 36.6722 30.0343 36.6647C30.375 36.6572 30.7053 36.5456 30.9806 36.3449C31.256 36.1441 31.4633 35.8638 31.5746 35.5418C31.6859 35.2197 31.6959 34.8713 31.6033 34.5433L28.555 23.8767L36.115 17.0733C36.61 16.6267 36.7916 15.93 36.5783 15.2983Z" fill="#C8242F"/>
</svg>
