<?xml version="1.0" encoding="UTF-8" standalone="no"?>
<!DOCTYPE svg PUBLIC "-//W3C//DTD SVG 1.1//EN" "http://www.w3.org/Graphics/SVG/1.1/DTD/svg11.dtd">
<svg width="100%" height="100%" viewBox="0 0 40 40" version="1.1" xmlns="http://www.w3.org/2000/svg" xmlns:xlink="http://www.w3.org/1999/xlink" xml:space="preserve" xmlns:serif="http://www.serif.com/" style="fill-rule:evenodd;clip-rule:evenodd;stroke-linejoin:round;stroke-miterlimit:1.41421;">
    <g transform="matrix(1,0,0,1,2,2)">
        <path d="M5.63,12.517L17.459,17.883C17.805,18.04 18.195,18.04 18.54,17.883L30.369,12.517C31.21,12.136 31.21,10.866 30.369,10.484L18.541,5.118C18.371,5.04 18.187,5 18,5C17.814,5 17.629,5.04 17.46,5.118L5.63,10.484C4.79,10.865 4.79,12.136 5.63,12.517ZM30.37,17L27.42,15.663L19.212,19.384C18.828,19.558 18.42,19.646 18,19.646C17.58,19.646 17.173,19.558 16.788,19.384L8.581,15.663L5.63,17C4.79,17.381 4.79,18.65 5.63,19.031L17.459,24.393C17.805,24.549 18.195,24.549 18.54,24.393L30.37,19.031C31.21,18.65 31.21,17.381 30.37,17ZM30.37,23.49L27.431,22.158L19.212,25.883C18.828,26.058 18.42,26.146 18,26.146C17.58,26.146 17.173,26.058 16.788,25.883L8.57,22.158L5.63,23.49C4.79,23.87 4.79,25.14 5.63,25.521L17.459,30.883C17.805,31.039 18.195,31.039 18.54,30.883L30.37,25.521C31.21,25.14 31.21,23.87 30.37,23.49Z" style="fill:rgb(200,36,47);fill-rule:nonzero;"/>
    </g>
</svg>
